<svg xmlns="http://www.w3.org/2000/svg" xmlns:xlink="http://www.w3.org/1999/xlink" width="285.674" height="81.84" viewBox="0 0 285.674 81.84"><defs><clipPath id="clip-path"><rect id="Rectangle_5" data-name="Rectangle 5" width="285.674" height="81.84" fill="none"></rect></clipPath></defs><g id="Group_4" data-name="Group 4" transform="translate(0 0)"><g id="Group_3" data-name="Group 3" transform="translate(0 0)" clip-path="url(#clip-path)"><path id="Path_6" data-name="Path 6" d="M81.84,40.919A40.92,40.92,0,1,1,40.92,0a40.921,40.921,0,0,1,40.92,40.92" transform="translate(0 0)" fill="#fff"></path><path id="Path_7" data-name="Path 7" d="M61.571,39.359a13.275,13.275,0,0,0-12.59,7.915H45.74l1.418-7.2H39.665l-1.419,7.2H32.22L43.242,26.747H35.5l-15.232,26.8-.05.344H36.922L35.5,61.038h7.495l1.423-7.15H47.84a9.078,9.078,0,0,0,9.222,8.74A6.2,6.2,0,0,0,60,61.842L50.6,74.332h9.161L70.682,59.687a15.87,15.87,0,0,0,3.285-9.5c0-6.563-5.146-10.823-12.4-10.823M60.4,56.209a4.267,4.267,0,0,1-4.558-4.558,5.365,5.365,0,0,1,5.683-5.534,4.127,4.127,0,0,1,4.409,4.359A5.536,5.536,0,0,1,60.4,56.209" transform="translate(-6.907 -9.138)" fill="#242424"></path><path id="Path_8" data-name="Path 8" d="M165.434,54.972a13.558,13.558,0,1,0,0,14.191h1.036a14.237,14.237,0,0,1-12.955,7.414c-8.211,0-14.828-6.1-14.828-14.51s6.617-14.51,14.828-14.51a14.237,14.237,0,0,1,12.955,7.414Z" transform="translate(-47.381 -16.248)" fill="#fff"></path><path id="Path_9" data-name="Path 9" d="M187.125,70.883a10.165,10.165,0,1,1,10.164,10.125,9.995,9.995,0,0,1-10.164-10.125m1.036,0a9.129,9.129,0,1,0,9.128-9.208,8.988,8.988,0,0,0-9.128,9.208" transform="translate(-63.929 -20.757)" fill="#fff"></path><rect id="Rectangle_4" data-name="Rectangle 4" width="1.036" height="29.099" transform="translate(149.027 30.673)" fill="#fff"></rect><path id="Path_10" data-name="Path 10" d="M255.583,46.59h1.036v29.1h-1v-5.82a9.736,9.736,0,0,1-9.248,6.3,10.125,10.125,0,0,1,0-20.25,9.641,9.641,0,0,1,9.208,6.3Zm-9.128,28.66a9.209,9.209,0,1,0-9.128-9.208,8.924,8.924,0,0,0,9.128,9.208" transform="translate(-80.726 -15.917)" fill="#fff"></path><path id="Path_11" data-name="Path 11" d="M279.1,62.215a9.641,9.641,0,0,1,9.208-6.3,10.125,10.125,0,0,1,0,20.25,9.736,9.736,0,0,1-9.248-6.3v5.82h-1v-29.1H279.1Zm9.128-5.381a9.209,9.209,0,1,0,9.128,9.208,8.924,8.924,0,0,0-9.128-9.208" transform="translate(-94.998 -15.917)" fill="#fff"></path><path id="Path_12" data-name="Path 12" d="M327.109,62.159h-.319c-4.943,0-8.332,3.548-8.332,8.571v9.965h-1.036V61.4h1v5.979c1-3.947,4.225-6.139,8.69-6.139Z" transform="translate(-108.444 -20.923)" fill="#fff"></path><path id="Path_13" data-name="Path 13" d="M335.528,70.883a10.165,10.165,0,1,1,10.164,10.125,9.995,9.995,0,0,1-10.164-10.125m1.036,0a9.129,9.129,0,1,0,9.128-9.208,8.988,8.988,0,0,0-9.128,9.208" transform="translate(-114.629 -20.757)" fill="#fff"></path><path id="Path_14" data-name="Path 14" d="M372.219,70.883a10.165,10.165,0,1,1,10.164,10.125,9.995,9.995,0,0,1-10.164-10.125m1.036,0a9.129,9.129,0,1,0,9.128-9.208,8.988,8.988,0,0,0-9.128,9.208" transform="translate(-127.164 -20.757)" fill="#fff"></path><path id="Path_15" data-name="Path 15" d="M411.453,75.689V46.59h1.036V65.4L424.169,56.4h1.515L413.646,65.6l12.6,10.085h-1.515L412.49,65.843v9.846Z" transform="translate(-140.568 -15.917)" fill="#fff"></path></g></g></svg>